# Blender 3.6.2
# www.blender.org
mtllib assembling_machine.mtl
o Cube.001
v -0.265057 1.895892 -1.254758
v 1.264610 1.895892 0.274910
v 1.264610 1.895892 -1.254758
v 1.227275 1.734564 0.415094
v -0.227722 0.279568 0.415094
v 1.227275 0.279568 0.415094
v -0.448285 1.780124 0.283134
v -0.448285 0.234008 -1.262982
v -0.448285 0.234008 0.283134
v 1.317690 0.066077 -1.307837
v -0.318137 0.066077 0.327989
v -0.318137 0.066077 -1.307837
v 1.432138 1.790424 -1.273282
v 1.432138 0.223708 0.293434
v 1.432138 0.223708 -1.273282
v -0.271380 1.778223 -1.469326
v 1.270933 0.235909 -1.469326
v -0.271380 0.235909 -1.469326
v -0.227722 1.734564 0.415094
v -0.500224 0.007066 0.510076
v 1.499776 2.007066 0.510076
v -0.500224 2.007066 0.510076
v 1.499776 0.007066 0.510076
v -0.448285 1.780124 -1.262982
v -0.500224 0.007066 -1.489924
v -0.500224 2.007066 -1.489924
v 1.499776 0.007066 -1.489924
v 1.310126 1.778223 -1.469326
v 1.499776 2.007066 -1.489924
v 1.432138 1.790424 0.293434
v -0.265057 1.895892 0.274910
v 1.317690 0.066077 0.327989
vn -0.0000 1.0000 -0.0000
vn -0.0000 -0.0000 1.0000
vn -1.0000 -0.0000 -0.0000
vn -0.0000 -1.0000 -0.0000
vn 1.0000 -0.0000 -0.0000
vn -0.0000 -0.0000 -1.0000
vn 0.3291 -0.0000 0.9443
vn -0.3291 -0.0000 0.9443
vn -0.0000 -0.3291 0.9443
vn -0.0000 0.3291 0.9443
vn -0.9748 0.2231 -0.0000
vn -0.9748 -0.0000 -0.2231
vn -0.9748 -0.0000 0.2231
vn -0.9748 -0.2231 -0.0000
vn -0.0000 0.0896 -0.9960
vn -0.0874 0.0022 -0.9962
vn 0.0896 -0.0000 -0.9960
vn -0.0000 -0.0896 -0.9960
vn 0.9546 -0.0000 0.2980
vn 0.9546 -0.0000 -0.2980
vn 0.9546 -0.2980 -0.0000
vn 0.9546 0.2980 -0.0000
vn -0.0000 0.9041 -0.4274
vn -0.4274 0.9041 -0.0000
vn 0.4274 0.9041 -0.0000
vn -0.0000 0.9041 0.4274
vn 0.3083 -0.9513 -0.0000
vn -0.0000 -0.9513 0.3083
vn -0.0000 -0.9513 -0.3083
vn -0.3083 -0.9513 -0.0000
vn -0.1080 -0.0000 -0.9942
vt 0.624484 0.296577
vt 0.375515 0.039414
vt 0.624872 0.040244
vt 0.288950 0.617051
vt 0.047677 0.375973
vt 0.288563 0.375779
vt 0.704409 0.296753
vt 0.959156 0.040843
vt 0.959156 0.295590
vt 0.967620 0.368426
vt 0.696334 0.631961
vt 0.697109 0.368426
vt 0.296492 0.960639
vt 0.039555 0.703508
vt 0.296492 0.703508
vt 0.039927 0.039687
vt 0.296081 0.288274
vt 0.039439 0.288029
vt 0.047290 0.616858
vt 0.003906 0.337240
vt 0.329427 0.662760
vt 0.003906 0.662760
vt 0.329427 0.337240
vt 0.996093 0.329427
vt 0.670572 0.329427
vt 0.704409 0.040843
vt 0.996093 0.003906
vt 0.670572 0.003906
vt 0.329427 0.329427
vt 0.003906 0.329427
vt 0.296356 0.040420
vt 0.003906 0.003906
vt 0.329427 0.003906
vt 0.329427 0.996094
vt 0.039167 0.960833
vt 0.003906 0.670573
vt 0.003906 0.996094
vt 0.329427 0.670573
vt 0.375822 0.296073
vt 0.337239 0.003906
vt 0.662760 0.003906
vt 0.337239 0.329427
vt 0.662760 0.329427
vt 0.670573 0.337240
vt 0.996093 0.337240
vt 0.968007 0.631186
vt 0.670573 0.662760
vt 0.996093 0.662760
s 1
usemtl Material.001
f 1/1/1 2/2/1 3/3/1
f 4/4/2 5/5/2 6/6/2
f 7/7/3 8/8/3 9/9/3
f 10/10/4 11/11/4 12/12/4
f 13/13/5 14/14/5 15/15/5
f 16/16/6 17/17/6 18/18/6
f 19/19/7 20/20/7 5/5/7
f 6/6/8 21/21/8 4/4/8
f 4/4/9 22/22/9 19/19/9
f 5/5/10 23/23/10 6/6/10
f 8/8/11 20/24/11 9/9/11
f 9/9/12 22/25/12 7/7/12
f 24/26/13 25/27/13 8/8/13
f 7/7/14 26/28/14 24/26/14
f 18/18/15 27/29/15 25/30/15
f 28/31/16 27/29/16 17/17/16
f 18/18/17 26/32/17 16/16/17
f 16/16/18 29/33/18 28/31/18
f 15/15/19 29/34/19 13/13/19
f 30/35/20 23/36/20 14/14/20
f 13/13/21 21/37/21 30/35/21
f 14/14/22 27/38/22 15/15/22
f 31/39/23 21/40/23 2/2/23
f 2/2/24 29/41/24 3/3/24
f 1/1/25 22/42/25 31/39/25
f 3/3/26 26/43/26 1/1/26
f 11/11/27 25/44/27 12/12/27
f 12/12/28 27/45/28 10/10/28
f 32/46/29 20/47/29 11/11/29
f 10/10/30 23/48/30 32/46/30
f 1/1/1 31/39/1 2/2/1
f 4/4/2 19/19/2 5/5/2
f 7/7/3 24/26/3 8/8/3
f 10/10/4 32/46/4 11/11/4
f 13/13/5 30/35/5 14/14/5
f 16/16/6 28/31/6 17/17/6
f 19/19/7 22/22/7 20/20/7
f 6/6/8 23/23/8 21/21/8
f 4/4/9 21/21/9 22/22/9
f 5/5/10 20/20/10 23/23/10
f 8/8/11 25/27/11 20/24/11
f 9/9/12 20/24/12 22/25/12
f 24/26/13 26/28/13 25/27/13
f 7/7/14 22/25/14 26/28/14
f 18/18/15 17/17/15 27/29/15
f 28/31/31 29/33/31 27/29/31
f 18/18/17 25/30/17 26/32/17
f 16/16/18 26/32/18 29/33/18
f 15/15/19 27/38/19 29/34/19
f 30/35/20 21/37/20 23/36/20
f 13/13/21 29/34/21 21/37/21
f 14/14/22 23/36/22 27/38/22
f 31/39/23 22/42/23 21/40/23
f 2/2/24 21/40/24 29/41/24
f 1/1/25 26/43/25 22/42/25
f 3/3/26 29/41/26 26/43/26
f 11/11/27 20/47/27 25/44/27
f 12/12/28 25/44/28 27/45/28
f 32/46/29 23/48/29 20/47/29
f 10/10/30 27/45/30 23/48/30
