# Blender 3.6.2
# www.blender.org
o Cube
v -0.319922 1.000926 0.326502
v -0.319922 1.000926 -0.316632
v 0.313342 1.000926 0.316632
v 0.310052 1.000926 -0.306762
v -0.150290 1.689522 0.150227
v -0.150970 1.694552 -0.150173
v 0.150673 1.690046 -0.149797
v 0.151470 1.692809 0.149557
v -0.501287 -0.001649 -0.399786
v -0.501287 -0.001649 0.399786
v -0.395591 1.000926 0.315491
v -0.395591 1.000926 -0.315491
v 0.501287 -0.001649 0.399786
v 0.501287 -0.001649 -0.399786
v 0.395591 1.000926 -0.315491
v 0.395591 1.000926 0.315491
v -0.175638 1.689137 0.150260
v -0.175638 1.689137 -0.150260
v 0.175131 1.690973 -0.150260
v 0.176700 1.690973 0.149491
v 0.407482 -0.001649 -0.501287
v -0.421251 -0.001649 -0.501287
v -0.331698 1.000926 -0.395591
v 0.322297 1.000926 -0.395591
v -0.230222 -0.001191 0.501529
v 0.218305 -0.001111 0.500487
v 0.192963 0.762493 0.412736
v -0.202837 0.762493 0.412736
v -0.150442 1.689137 -0.175824
v 0.150183 1.689137 -0.176049
v 0.151208 1.690973 0.175899
v -0.150442 1.690973 0.175674
v 0.407482 -0.001649 -0.399786
v -0.421251 -0.001649 -0.399786
v 0.407482 -0.001649 0.399786
v -0.421251 -0.001649 0.399786
v 0.150084 1.600814 -0.149268
v 0.151624 1.600814 0.148594
v -0.150328 1.600814 0.150931
v -0.150504 1.600814 -0.150218
v -0.200385 1.600813 -0.150093
v -0.200385 1.600813 0.150093
v 0.200641 1.600813 0.149923
v 0.200128 1.600813 -0.150435
v 0.150398 1.600813 -0.200385
v -0.150365 1.600813 -0.200641
v -0.150015 1.600813 0.199872
v 0.150817 1.600813 0.200385
v -0.421251 -0.001649 0.501287
v 0.407482 -0.001649 0.501287
v 0.322297 1.000926 0.395591
v -0.331698 1.000926 0.395591
v -0.166247 0.071323 0.487780
v 0.153356 0.071323 0.487780
v 0.132252 0.704205 0.428150
v -0.142388 0.704205 0.428150
v -0.231407 0.008840 0.578943
v 0.218234 0.008840 0.578943
v 0.192963 0.766688 0.507538
v -0.202837 0.766688 0.507538
v -0.166247 0.071323 0.573056
v 0.153356 0.071323 0.573056
v 0.132252 0.704205 0.513425
v -0.142388 0.704205 0.513425
vn -0.9960 0.0890 -0.0000
vn -0.1012 0.0822 -0.9915
vn 0.0138 0.0839 0.9964
vn 0.9964 0.0847 -0.0000
vn -0.0233 -0.0045 -0.9997
vn -0.0167 0.0028 0.9999
vn -1.0000 -0.0001 -0.0028
vn -0.0000 0.9994 -0.0346
vn -0.0379 0.9993 0.0002
vn 0.9999 0.0016 0.0100
vn -0.0000 0.9984 -0.0569
vn 0.0018 -0.0105 0.9999
vn -0.2144 0.9767 -0.0000
vn 0.0034 0.0005 -1.0000
vn -0.9629 0.2698 -0.0000
vn 0.9665 0.2566 -0.0016
vn 0.9872 0.0833 0.1361
vn -0.0000 -1.0000 -0.0000
vn 0.9945 0.1048 -0.0000
vn -0.1435 0.0866 0.9859
vn -0.9945 0.1048 -0.0000
vn -0.0000 0.0838 -0.9965
vn -0.0023 0.0105 -0.9999
vn 0.9998 -0.0067 -0.0184
vn 0.0008 0.2656 -0.9641
vn -1.0000 0.0004 -0.0060
vn -0.0007 0.2592 0.9658
vn 1.0000 -0.0004 -0.0006
vn 0.0008 -1.0000 0.0069
vn 0.9994 0.0330 -0.0033
vn -0.0000 0.1048 -0.9945
vn -0.0000 0.3102 0.9507
vn -0.9618 0.2737 0.0062
vn 0.0008 0.3096 -0.9509
vn 0.9666 0.2562 0.0059
vn 0.9510 0.3091 -0.0000
vn -0.0261 0.2631 0.9644
vn -0.9509 0.3094 -0.0000
vn -0.0024 0.2679 -0.9634
vn -0.9593 0.2435 0.1431
vn 0.9646 0.2401 -0.1094
vn -0.1372 0.3045 0.9426
vn -0.0987 0.2340 -0.9672
vn -0.0000 0.0717 0.9974
vn -0.0531 0.1002 0.9935
vn -0.0015 0.1155 0.9933
vn -0.0000 0.0938 0.9956
vn -0.0000 -0.9917 0.1285
vn -0.9994 0.0357 -0.0016
vn -0.0000 0.9990 -0.0442
vn -0.0000 1.0000 -0.0000
vn -0.9994 -0.0333 -0.0000
vn 0.9993 -0.0377 -0.0000
vn -1.0000 0.0066 0.0052
vn -0.0013 -0.0005 1.0000
vn -0.9853 0.0874 0.1469
vn -0.0000 0.0838 0.9965
vn -0.9820 0.0870 -0.1674
vn 0.9901 0.0837 -0.1123
vn -0.0187 -0.0058 -0.9998
vn 0.0012 0.0079 1.0000
vn -0.9998 -0.0050 -0.0195
vn 0.0149 0.9784 -0.2062
vn 0.0726 0.9973 -0.0094
vn 0.9999 -0.0001 0.0156
vn -0.0107 0.9975 0.0694
vn -0.0271 -0.0024 0.9996
vn -0.0152 0.9997 0.0168
vn -0.0025 -0.0012 -1.0000
vn 0.9636 0.2672 -0.0050
vn -0.0150 0.0842 -0.9963
vn -0.0077 -0.0079 -0.9999
vn 1.0000 0.0007 0.0061
vn -0.0007 0.2705 -0.9627
vn -1.0000 -0.0030 0.0064
vn -0.0016 0.2621 0.9650
vn 1.0000 0.0050 -0.0022
vn -0.0028 -1.0000 -0.0000
vn 0.0014 -0.8508 0.5254
vn 0.9995 0.0330 -0.0015
vn -0.0016 0.3090 0.9511
vn -0.9577 0.2368 -0.1632
vn -0.0000 0.3091 -0.9510
vn 0.9634 0.2328 0.1328
vn 0.9507 0.3102 -0.0016
vn 0.0134 0.2701 0.9628
vn -0.0145 0.2702 -0.9627
vn -0.9622 0.2725 -0.0027
vn 0.9644 0.2642 0.0150
vn -0.0160 0.2850 0.9584
vn -0.0226 0.2482 -0.9684
vn -0.0039 0.1140 0.9935
vn 0.0529 0.1000 0.9936
vn 0.0005 -0.9921 0.1258
vn -0.9992 0.0358 -0.0199
vn -1.0000 -0.0017 0.0027
vn -0.0032 0.0059 1.0000
vt 0.735526 0.981271
vt 0.776805 0.704885
vt 0.763388 0.985552
vt 0.595507 0.704301
vt 0.554712 0.980347
vt 0.572062 0.700239
vt 0.943036 0.980533
vt 0.902554 0.704251
vt 0.925116 0.700721
vt 0.498269 0.703976
vt 0.539512 0.980366
vt 0.511649 0.984641
vt 0.845806 0.980307
vt 0.887354 0.704076
vt 0.873664 0.984619
vt 0.554712 0.524320
vt 0.565530 0.500962
vt 0.568434 0.526547
vt 0.667490 0.524279
vt 0.678401 0.501393
vt 0.681208 0.526538
vt 0.735526 0.525242
vt 0.746251 0.502236
vt 0.749368 0.527365
vt 0.965392 0.780495
vt 0.958237 0.696869
vt 0.965531 0.697013
vt 0.958379 0.977592
vt 0.965236 0.894458
vt 0.965175 0.977686
vt 0.857098 0.501306
vt 0.845806 0.524749
vt 0.849944 0.499694
vt 0.289896 0.815889
vt 0.296970 0.899623
vt 0.289896 0.899657
vt 0.943036 0.524710
vt 0.932243 0.501287
vt 0.939084 0.499694
vt 0.958237 0.795817
vt 0.965107 0.879202
vt 0.958237 0.879258
vt 0.830606 0.525123
vt 0.819782 0.502293
vt 0.826296 0.499694
vt 0.805034 0.032758
vt 0.888462 0.007619
vt 0.888402 0.032776
vt 0.567837 0.033259
vt 0.651157 0.007684
vt 0.651252 0.033311
vt 0.652290 0.980024
vt 0.610707 0.703799
vt 0.635040 0.699649
vt 0.007600 0.772429
vt 0.033652 0.550409
vt 0.033652 0.772429
vt 0.498269 0.484835
vt 0.697027 0.204946
vt 0.720326 0.484929
vt 0.706276 0.704041
vt 0.667490 0.980642
vt 0.685454 0.700946
vt 0.735526 0.484444
vt 0.934231 0.204524
vt 0.957584 0.484494
vt 0.263809 0.772429
vt 0.286037 0.550409
vt 0.286037 0.772429
vt 0.263809 0.550409
vt 0.792005 0.705225
vt 0.830606 0.981668
vt 0.808684 0.985321
vt 0.033652 0.800613
vt 0.263809 0.800613
vt 0.274595 0.815813
vt 0.250316 0.899657
vt 0.249248 0.815860
vt 0.652290 0.524424
vt 0.641203 0.501477
vt 0.648371 0.500129
vt 0.327802 0.032840
vt 0.411203 0.007609
vt 0.411318 0.032831
vt 0.539512 0.524348
vt 0.528942 0.500810
vt 0.535988 0.500129
vt 0.163364 0.033379
vt 0.079788 0.007600
vt 0.163558 0.007708
vt 0.958278 0.499694
vt 0.982717 0.583134
vt 0.958236 0.583329
vt 0.086190 0.522444
vt 0.263809 0.522225
vt 0.358202 0.939920
vt 0.384489 0.728860
vt 0.380161 0.939690
vt 0.277957 0.205270
vt 0.483069 0.485109
vt 0.252943 0.485109
vt 0.031587 0.205185
vt 0.213205 0.205435
vt 0.517184 0.700692
vt 0.526075 0.526400
vt 0.459561 0.205270
vt 0.638262 0.526604
vt 0.521791 0.204872
vt 0.929595 0.526882
vt 0.758994 0.204485
vt 0.812743 0.701813
vt 0.816942 0.527396
vt 0.755194 0.701183
vt 0.865735 0.700448
vt 0.860025 0.526925
vt 0.067450 0.271539
vt 0.177366 0.271690
vt 0.007600 0.485091
vt 0.237743 0.485408
vt 0.184693 0.485217
vt 0.007600 0.992278
vt 0.089916 0.815918
vt 0.096355 0.992400
vt 0.210756 0.522156
vt 0.086210 0.500608
vt 0.211085 0.500607
vt 0.343002 0.713294
vt 0.316716 0.502203
vt 0.343002 0.500309
vt 0.343002 0.838414
vt 0.316654 0.728494
vt 0.343002 0.728502
vt 0.464992 0.694342
vt 0.358202 0.711618
vt 0.376237 0.694220
vt 0.382285 0.517755
vt 0.475359 0.500460
vt 0.458553 0.517860
vt 0.365443 0.500309
vt 0.483069 0.711789
vt 0.135232 0.904566
vt 0.111555 0.815820
vt 0.135232 0.815813
vt 0.150432 0.914864
vt 0.174111 0.991138
vt 0.150432 0.991138
vt 0.462040 0.901692
vt 0.438463 0.729227
vt 0.462040 0.726989
vt 0.399689 0.901703
vt 0.423263 0.729248
vt 0.423263 0.903962
vt 0.958237 0.598948
vt 0.983299 0.681669
vt 0.958663 0.681669
vt 0.150432 0.899665
vt 0.233760 0.816193
vt 0.234048 0.899665
vt 0.316654 0.937253
vt 0.341352 0.853614
vt 0.342491 0.937383
vt 0.580437 0.984438
vt 0.917306 0.984603
vt 0.558782 0.500129
vt 0.671475 0.500129
vt 0.739433 0.499694
vt 0.958237 0.780617
vt 0.958236 0.894458
vt 0.297199 0.815813
vt 0.965277 0.795826
vt 0.805001 0.007600
vt 0.567912 0.007600
vt 0.624432 0.984334
vt 0.007600 0.550409
vt 0.689413 0.984299
vt 0.274696 0.899671
vt 0.327723 0.007600
vt 0.079820 0.033282
vt 0.984162 0.499707
vt 0.033652 0.522225
vt 0.358202 0.726989
vt 0.060138 0.484988
vt 0.013647 0.815813
vt 0.321330 0.713069
vt 0.316654 0.838406
vt 0.111555 0.904573
vt 0.174111 0.914864
vt 0.438463 0.903930
vt 0.399689 0.726989
vt 0.983609 0.598529
vt 0.151057 0.815813
vt 0.316737 0.853776
s 0
f 34/1/1 23/2/1 22/3/1
f 15/4/2 33/5/2 4/6/2
f 35/7/3 16/8/3 3/9/3
f 52/10/1 36/11/1 49/12/1
f 35/13/4 51/14/4 50/15/4
f 37/16/5 19/17/5 44/18/5
f 39/19/6 17/20/6 42/21/6
f 40/22/7 29/23/7 46/24/7
f 29/25/8 7/26/8 30/27/8
f 7/28/9 20/29/9 19/30/9
f 31/31/10 38/32/10 8/33/10
f 31/34/11 5/35/11 32/36/11
f 38/37/12 20/38/12 8/39/12
f 17/40/13 6/41/13 18/42/13
f 40/43/14 18/44/14 6/45/14
f 42/46/15 18/47/15 41/48/15
f 44/49/16 20/50/16 43/51/16
f 33/52/17 24/53/17 4/54/17
f 14/55/18 35/56/18 33/57/18
f 14/58/19 16/59/19 13/60/19
f 11/61/20 36/62/20 1/63/20
f 10/64/21 12/65/21 9/66/21
f 34/67/18 10/68/18 9/69/18
f 33/57/18 36/70/18 34/67/18
f 12/71/22 34/72/22 9/73/22
f 21/74/18 34/67/18 22/75/18
f 38/76/23 5/77/23 8/78/23
f 37/79/24 30/80/24 7/81/24
f 46/82/25 30/83/25 45/84/25
f 39/85/26 32/86/26 5/87/26
f 47/88/27 31/89/27 32/90/27
f 40/91/28 5/92/28 39/93/28
f 35/56/29 26/94/29 49/95/29
f 26/96/30 59/97/30 58/98/30
f 23/99/31 21/100/31 22/101/31
f 51/102/32 47/88/32 52/103/32
f 1/104/33 47/105/33 39/85/33
f 24/106/34 46/82/34 45/84/34
f 4/54/35 45/107/35 37/79/35
f 15/108/36 43/51/36 16/59/36
f 3/9/37 43/109/37 38/37/37
f 11/110/38 41/48/38 12/65/38
f 2/111/39 41/112/39 40/43/39
f 2/113/40 46/24/40 23/2/40
f 3/114/41 48/115/41 51/14/41
f 1/63/42 42/21/42 11/61/42
f 4/6/43 44/18/43 15/4/43
f 27/116/44 52/103/44 28/117/44
f 27/116/45 50/118/45 51/102/45
f 28/117/46 49/119/46 25/120/46
f 54/121/47 56/122/47 53/123/47
f 25/124/48 58/125/48 57/126/48
f 25/127/49 60/128/49 28/129/49
f 28/130/50 59/131/50 27/132/50
f 61/133/47 58/134/47 62/135/47
f 63/136/47 60/137/47 64/138/47
f 62/135/47 59/139/47 63/136/47
f 61/133/47 60/137/47 57/140/47
f 53/141/51 62/142/51 54/143/51
f 55/144/18 64/145/18 56/146/18
f 54/147/52 63/148/52 55/149/52
f 53/150/53 64/151/53 61/152/53
f 38/153/54 7/154/54 37/155/54
f 39/156/51 37/157/51 40/158/51
f 40/159/55 7/160/55 6/161/55
f 34/1/56 2/113/56 23/2/56
f 15/4/22 14/162/22 33/5/22
f 35/7/57 13/163/57 16/8/57
f 52/10/58 1/104/58 36/11/58
f 35/13/59 3/114/59 51/14/59
f 37/16/60 7/164/60 19/17/60
f 39/19/61 5/165/61 17/20/61
f 40/22/62 6/166/62 29/23/62
f 29/25/63 6/167/63 7/26/63
f 7/28/64 8/168/64 20/29/64
f 31/31/65 48/115/65 38/32/65
f 31/34/66 8/169/66 5/35/66
f 38/37/67 43/109/67 20/38/67
f 17/40/68 5/170/68 6/41/68
f 40/43/69 41/112/69 18/44/69
f 42/46/15 17/171/15 18/47/15
f 44/49/70 19/172/70 20/50/70
f 33/52/4 21/173/4 24/53/4
f 14/55/18 13/174/18 35/56/18
f 14/58/19 15/108/19 16/59/19
f 11/61/57 10/175/57 36/62/57
f 10/64/21 11/110/21 12/65/21
f 34/67/18 36/70/18 10/68/18
f 33/57/18 35/56/18 36/70/18
f 12/71/71 2/111/71 34/72/71
f 21/74/18 33/57/18 34/67/18
f 38/76/72 39/176/72 5/77/72
f 37/79/73 45/107/73 30/80/73
f 46/82/74 29/177/74 30/83/74
f 39/85/75 47/105/75 32/86/75
f 47/88/76 48/178/76 31/89/76
f 40/91/77 6/179/77 5/92/77
f 49/95/18 36/70/18 35/56/18
f 35/56/78 50/180/78 26/94/78
f 26/94/79 25/124/79 49/95/79
f 26/96/80 27/181/80 59/97/80
f 23/99/31 24/106/31 21/100/31
f 51/102/81 48/178/81 47/88/81
f 1/104/82 52/10/82 47/105/82
f 24/106/83 23/99/83 46/82/83
f 4/54/84 24/53/84 45/107/84
f 15/108/85 44/49/85 43/51/85
f 3/9/86 16/8/86 43/109/86
f 11/110/38 42/46/38 41/48/38
f 2/111/87 12/71/87 41/112/87
f 2/113/88 40/22/88 46/24/88
f 3/114/89 38/32/89 48/115/89
f 1/63/90 39/19/90 42/21/90
f 4/6/91 37/16/91 44/18/91
f 27/116/44 51/102/44 52/103/44
f 27/116/92 26/182/92 50/118/92
f 28/117/93 52/103/93 49/119/93
f 54/121/47 55/183/47 56/122/47
f 25/124/94 26/94/94 58/125/94
f 25/127/95 57/184/95 60/128/95
f 28/130/50 60/185/50 59/131/50
f 61/133/47 57/140/47 58/134/47
f 63/136/47 59/139/47 60/137/47
f 62/135/47 58/134/47 59/139/47
f 61/133/47 64/138/47 60/137/47
f 53/141/51 61/186/51 62/142/51
f 55/144/18 63/187/18 64/145/18
f 54/147/52 62/188/52 63/148/52
f 53/150/53 56/189/53 64/151/53
f 38/153/96 8/190/96 7/154/96
f 39/156/51 38/191/51 37/157/51
f 40/159/97 37/192/97 7/160/97
